<svg xmlns="http://www.w3.org/2000/svg" width="384" height="88" viewBox="0 0 384 88" role="img" aria-labelledby="title desc">
  <title id="title">Diffy logo</title>
  <desc id="desc">Diffy wordmark with the split D-shaped diff mark.</desc>
  <defs>
    <linearGradient id="markBg" x1="12" y1="12" x2="76" y2="76" gradientUnits="userSpaceOnUse">
      <stop offset="0" stop-color="#272c33" />
      <stop offset="1" stop-color="#14161a" />
    </linearGradient>
    <linearGradient id="markStem" x1="22" y1="21" x2="45" y2="67" gradientUnits="userSpaceOnUse">
      <stop offset="0" stop-color="#0891b2" />
      <stop offset="1" stop-color="#2563eb" />
    </linearGradient>
  </defs>
  <rect x="8" y="8" width="72" height="72" rx="16" fill="url(#markBg)" />
  <path
    fill="#f7f8fa"
    d="M26.56 24.31h18c11.5 0 20.81 8.81 20.81 19.69S56.06 63.69 44.56 63.69h-18V24.31Zm16.31 9H36.12v21.38h6.75c6.52 0 11.81-4.79 11.81-10.69s-5.29-10.69-11.81-10.69Z"
  />
  <path fill="url(#markStem)" d="M26.56 24.31h12.38v39.38H26.56V24.31Z" />
  <rect x="41.19" y="28.25" width="3.94" height="31.5" rx="1.97" fill="#14161a" />
  <path fill="#16a34a" d="M31.63 37.25h4.5v5.06h5.06v4.5h-5.06v5.06h-4.5v-5.06h-5.06v-4.5h5.06v-5.06Z" />
  <rect x="48.5" y="41.75" width="10.69" height="4.5" rx="2.25" fill="#dc2626" />
  <path fill="#b8c0ca" d="M44 24.31h.56c11.5 0 20.81 8.81 20.81 19.69s-9.31 19.69-20.81 19.69H44v-9h.56c6.52 0 11.81-4.79 11.81-10.69s-5.29-10.69-11.81-10.69H44v-9Z" opacity=".5" />
  <text
    x="100"
    y="55"
    fill="#14161a"
    font-family="Inter, ui-sans-serif, system-ui, -apple-system, BlinkMacSystemFont, 'Segoe UI', sans-serif"
    font-size="38"
    font-weight="700"
  >
    Diffy
  </text>
  <text
    x="205"
    y="55"
    fill="#5b6470"
    font-family="Inter, ui-sans-serif, system-ui, -apple-system, BlinkMacSystemFont, 'Segoe UI', sans-serif"
    font-size="14"
    font-weight="500"
  >
    git diffs in VS Code
  </text>
</svg>
