<svg xmlns="http://www.w3.org/2000/svg" width="128" height="128" viewBox="0 0 128 128" role="img" aria-labelledby="title desc">
  <title id="title">Diffy mark</title>
  <desc id="desc">A split D-shaped diff mark with addition and deletion indicators.</desc>
  <defs>
    <linearGradient id="bg" x1="18" y1="18" x2="110" y2="110" gradientUnits="userSpaceOnUse">
      <stop offset="0" stop-color="#272c33" />
      <stop offset="1" stop-color="#14161a" />
    </linearGradient>
    <linearGradient id="stem" x1="32" y1="30" x2="64" y2="98" gradientUnits="userSpaceOnUse">
      <stop offset="0" stop-color="#0891b2" />
      <stop offset="1" stop-color="#2563eb" />
    </linearGradient>
  </defs>
  <rect width="128" height="128" rx="24" fill="url(#bg)" />
  <path
    fill="#f7f8fa"
    d="M33 29h32c20.44 0 37 15.66 37 35s-16.56 35-37 35H33V29Zm29 16H50v38h12c11.6 0 21-8.51 21-19s-9.4-19-21-19Z"
  />
  <path fill="url(#stem)" d="M33 29h22v70H33V29Z" />
  <rect x="59" y="36" width="7" height="56" rx="3.5" fill="#14161a" />
  <path fill="#16a34a" d="M42 52h8v9h9v8h-9v9h-8v-9h-9v-8h9v-9Z" />
  <rect x="72" y="60" width="19" height="8" rx="4" fill="#dc2626" />
  <path fill="#b8c0ca" d="M64 29h1c20.44 0 37 15.66 37 35s-16.56 35-37 35h-1V83h1c11.6 0 21-8.51 21-19s-9.4-19-21-19h-1V29Z" opacity=".5" />
</svg>
